<?xml version="1.0" encoding="UTF-8" standalone="no"?>
<!DOCTYPE svg PUBLIC "-//W3C//DTD SVG 1.1//EN"
 "http://www.w3.org/Graphics/SVG/1.1/DTD/svg11.dtd">
<!-- Generated by graphviz version 2.36.0 (20140111.2315)
 -->
<!-- Title: G Pages: 1 -->
<svg width="391pt" height="470pt"
 viewBox="0.00 0.00 391.15 470.00" xmlns="http://www.w3.org/2000/svg" xmlns:xlink="http://www.w3.org/1999/xlink">
<g id="graph0" class="graph" transform="scale(1 1) rotate(0) translate(4 466)">
<title>G</title>
<polygon fill="white" stroke="none" points="-4,4 -4,-466 387.153,-466 387.153,4 -4,4"/>
<!-- gplearn -->
<g id="node1" class="node"><title>gplearn</title>
<polygon fill="grey" stroke="black" points="155.403,-36 86.903,-36 86.903,-0 155.403,-0 155.403,-36"/>
<text text-anchor="middle" x="121.153" y="-14.3" font-family="Times,serif" font-size="14.00">GP:Learn</text>
</g>
<!-- bleser -->
<g id="node7" class="node"><title>bleser</title>
<polygon fill="grey" stroke="black" points="218.153,-138 114.153,-138 114.153,-102 218.153,-102 218.153,-138"/>
<text text-anchor="middle" x="166.153" y="-116.3" font-family="Times,serif" font-size="14.00">Bleser&#39;s method</text>
</g>
<!-- gplearn&#45;&gt;bleser -->
<g id="edge11" class="edge"><title>gplearn&#45;&gt;bleser</title>
<path fill="none" stroke="black" d="M133.766,-36.2861C137.425,-41.7768 141.22,-47.988 144.153,-54 150.051,-66.091 155.027,-80.1624 158.746,-92.1144"/>
<polygon fill="black" stroke="black" points="155.472,-93.3851 161.682,-101.969 162.181,-91.3861 155.472,-93.3851"/>
<text text-anchor="middle" x="190.153" y="-65.3" font-family="times" font-weight="bold" font-size="14.00">covariances?</text>
</g>
<!-- aruco_ros -->
<g id="node2" class="node"><title>aruco_ros</title>
<polygon fill="grey" stroke="black" points="331.153,-228 235.153,-228 235.153,-190 331.153,-190 331.153,-228"/>
<text text-anchor="middle" x="283.153" y="-212.8" font-family="Times,serif" font-size="14.00">Marker&#45;based</text>
<text text-anchor="middle" x="283.153" y="-197.8" font-family="Times,serif" font-size="14.00">pose estimator</text>
</g>
<!-- aruco_ros&#45;&gt;bleser -->
<g id="edge2" class="edge"><title>aruco_ros&#45;&gt;bleser</title>
<path fill="none" stroke="black" d="M258.911,-189.974C241.069,-176.707 216.664,-158.559 197.365,-144.209"/>
<polygon fill="black" stroke="black" points="199.283,-141.274 189.17,-138.115 195.106,-146.891 199.283,-141.274"/>
<text text-anchor="middle" x="298.653" y="-160.3" font-family="Courier,monospace" font-size="14.00">aruco_ros/Marker</text>
</g>
<!-- hwimu -->
<g id="node3" class="node"><title>hwimu</title>
<polygon fill="grey" stroke="black" points="118.153,-462 38.153,-462 38.153,-426 118.153,-426 118.153,-462"/>
<text text-anchor="middle" x="78.153" y="-440.3" font-family="Times,serif" font-size="14.00">IMU driver</text>
</g>
<!-- hwcam -->
<g id="node4" class="node"><title>hwcam</title>
<polygon fill="grey" stroke="black" points="330.403,-462 235.903,-462 235.903,-426 330.403,-426 330.403,-462"/>
<text text-anchor="middle" x="283.153" y="-440.3" font-family="Times,serif" font-size="14.00">Camera driver</text>
</g>
<!-- hwimu&#45;&gt;hwcam -->
<g id="edge1" class="edge"><title>hwimu&#45;&gt;hwcam</title>
<path fill="none" stroke="black" stroke-dasharray="1,5" d="M118.166,-444C148.683,-444 191.151,-444 225.358,-444"/>
<polygon fill="black" stroke="black" points="225.686,-447.5 235.686,-444 225.686,-440.5 225.686,-447.5"/>
<text text-anchor="middle" x="176.903" y="-450.8" font-family="times" font-style="italic" font-size="14.00">trigger signal</text>
</g>
<!-- rosimu -->
<g id="node6" class="node"><title>rosimu</title>
<polygon fill="grey" stroke="black" points="169.153,-330 65.153,-330 65.153,-294 169.153,-294 169.153,-330"/>
<text text-anchor="middle" x="117.153" y="-308.3" font-family="Times,serif" font-size="14.00">ROS IMU node</text>
</g>
<!-- hwimu&#45;&gt;rosimu -->
<g id="edge7" class="edge"><title>hwimu&#45;&gt;rosimu</title>
<path fill="none" stroke="black" d="M37.8932,-430.679C27.3709,-425.427 17.2731,-418.102 11.153,-408 -2.6646,-385.192 -4.46987,-369.611 11.153,-348 21.5459,-333.624 38.0586,-325.053 54.986,-319.975"/>
<polygon fill="black" stroke="black" points="56.1662,-323.284 64.9574,-317.371 54.3975,-316.512 56.1662,-323.284"/>
<text text-anchor="middle" x="64.153" y="-396.8" font-family="Times,serif" font-size="14.00">timestamp,</text>
<text text-anchor="middle" x="64.153" y="-381.8" font-family="Times,serif" font-size="14.00">filtered orientation,</text>
<text text-anchor="middle" x="64.153" y="-366.8" font-family="Times,serif" font-size="14.00">acceleration,</text>
<text text-anchor="middle" x="64.153" y="-351.8" font-family="Times,serif" font-size="14.00">rate of turn</text>
</g>
<!-- roscam -->
<g id="node5" class="node"><title>roscam</title>
<polygon fill="grey" stroke="black" points="340.653,-330 225.653,-330 225.653,-294 340.653,-294 340.653,-330"/>
<text text-anchor="middle" x="283.153" y="-308.3" font-family="Times,serif" font-size="14.00">ROS camera node</text>
</g>
<!-- hwcam&#45;&gt;roscam -->
<g id="edge6" class="edge"><title>hwcam&#45;&gt;roscam</title>
<path fill="none" stroke="black" d="M256.108,-425.758C250.468,-420.767 245.288,-414.799 242.153,-408 230.986,-383.784 230.986,-372.216 242.153,-348 243.868,-344.282 246.194,-340.812 248.872,-337.615"/>
<polygon fill="black" stroke="black" points="251.602,-339.83 256.108,-330.242 246.606,-334.927 251.602,-339.83"/>
<text text-anchor="middle" x="273.153" y="-381.8" font-family="Times,serif" font-size="14.00">timestamp,</text>
<text text-anchor="middle" x="273.153" y="-366.8" font-family="Times,serif" font-size="14.00">image</text>
</g>
<!-- roscam&#45;&gt;aruco_ros -->
<g id="edge3" class="edge"><title>roscam&#45;&gt;aruco_ros</title>
<path fill="none" stroke="black" d="M283.153,-293.867C283.153,-278.695 283.153,-256.25 283.153,-238.396"/>
<polygon fill="black" stroke="black" points="286.653,-238.243 283.153,-228.243 279.653,-238.243 286.653,-238.243"/>
<text text-anchor="middle" x="333.153" y="-264.8" font-family="Courier,monospace" font-size="14.00">sensor_msgs/</text>
<text text-anchor="middle" x="333.153" y="-249.8" font-family="Courier,monospace" font-size="14.00">Image</text>
</g>
<!-- roscam&#45;&gt;hwcam -->
<g id="edge8" class="edge"><title>roscam&#45;&gt;hwcam</title>
<path fill="none" stroke="black" d="M296.044,-330.311C299.35,-335.703 302.451,-341.854 304.153,-348 311.271,-373.699 311.271,-382.301 304.153,-408 303.328,-410.977 302.176,-413.955 300.831,-416.848"/>
<polygon fill="black" stroke="black" points="297.727,-415.229 296.044,-425.689 303.883,-418.561 297.727,-415.229"/>
<text text-anchor="middle" x="329.153" y="-381.8" font-family="Times,serif" font-size="14.00"> trigger</text>
<text text-anchor="middle" x="329.153" y="-366.8" font-family="Times,serif" font-size="14.00"> action</text>
</g>
<!-- rosimu&#45;&gt;hwimu -->
<g id="edge9" class="edge"><title>rosimu&#45;&gt;hwimu</title>
<path fill="none" stroke="black" d="M121.223,-330.342C124.957,-350.083 128.377,-382.847 117.153,-408 115.491,-411.726 113.214,-415.22 110.589,-418.45"/>
<polygon fill="black" stroke="black" points="107.848,-416.253 103.499,-425.914 112.924,-421.074 107.848,-416.253"/>
<text text-anchor="middle" x="154.153" y="-381.8" font-family="Times,serif" font-size="14.00">trigger</text>
<text text-anchor="middle" x="154.153" y="-366.8" font-family="Times,serif" font-size="14.00"> frequency</text>
</g>
<!-- rosimu&#45;&gt;bleser -->
<g id="edge4" class="edge"><title>rosimu&#45;&gt;bleser</title>
<path fill="none" stroke="black" d="M116.049,-293.72C115.054,-269.829 115.141,-225.622 126.153,-190 130.892,-174.671 139.536,-159.082 147.579,-146.609"/>
<polygon fill="black" stroke="black" points="150.604,-148.382 153.265,-138.126 144.79,-144.484 150.604,-148.382"/>
<text text-anchor="middle" x="176.153" y="-212.8" font-family="Courier,monospace" font-size="14.00">sensor_msgs/</text>
<text text-anchor="middle" x="176.153" y="-197.8" font-family="Courier,monospace" font-size="14.00">Imu</text>
</g>
<!-- bleser&#45;&gt;gplearn -->
<g id="edge10" class="edge"><title>bleser&#45;&gt;gplearn</title>
<path fill="none" stroke="black" d="M123.514,-101.808C116.567,-97.084 110.297,-91.2155 106.153,-84 99.4169,-72.2721 101.948,-57.7179 106.693,-45.3565"/>
<polygon fill="black" stroke="black" points="109.984,-46.5692 110.838,-36.0089 103.585,-43.7314 109.984,-46.5692"/>
<text text-anchor="middle" x="125.153" y="-65.3" font-family="times" font-weight="bold" font-size="14.00">error?</text>
</g>
<!-- visualization -->
<g id="node8" class="node"><title>visualization</title>
<polygon fill="none" stroke="black" stroke-dasharray="5,2" points="324.153,-36 190.153,-36 190.153,-0 324.153,-0 324.153,-36"/>
<text text-anchor="middle" x="257.153" y="-14.3" font-family="Times,serif" font-size="14.00">Visualization module</text>
</g>
<!-- bleser&#45;&gt;visualization -->
<g id="edge5" class="edge"><title>bleser&#45;&gt;visualization</title>
<path fill="none" stroke="black" d="M205.305,-101.92C213.586,-97.0109 221.748,-91.0396 228.153,-84 237.996,-73.1824 244.936,-58.4732 249.554,-45.7834"/>
<polygon fill="black" stroke="black" points="252.923,-46.746 252.771,-36.1522 246.283,-44.5286 252.923,-46.746"/>
<text text-anchor="middle" x="283.653" y="-72.8" font-family="Courier,monospace" font-size="14.00">nav_msgs/</text>
<text text-anchor="middle" x="283.653" y="-57.8" font-family="Courier,monospace" font-size="14.00">Odometry</text>
</g>
</g>
</svg>
